<svg id="svg" version="1.1" xmlns="http://www.w3.org/2000/svg" xmlns:xlink="http://www.w3.org/1999/xlink" viewBox="0, 0, 400,400"><g id="svgg"><path id="path0" d="M77.700 117.427 C 60.027 118.677,53.306 123.176,50.525 135.616 C 49.403 140.636,49.350 141.578,49.199 159.500 C 49.050 177.130,49.018 177.721,48.003 181.688 C 45.695 190.712,39.899 193.800,25.271 193.800 L 21.800 193.800 21.800 200.071 L 21.800 206.343 26.850 206.458 C 39.747 206.753,44.915 209.401,47.515 217.045 C 48.968 221.317,49.196 224.538,49.198 240.821 C 49.200 256.964,49.410 260.439,50.702 265.769 C 53.863 278.812,61.895 282.995,84.450 283.343 L 91.400 283.451 91.400 277.154 L 91.400 270.857 85.750 270.742 C 71.355 270.450,67.801 268.328,66.085 259.000 C 65.778 257.333,65.718 255.025,65.594 240.200 C 65.444 222.260,65.372 220.835,64.382 216.261 C 62.602 208.036,58.302 203.349,50.174 200.772 L 48.167 200.136 49.742 199.682 C 58.610 197.121,63.063 192.047,64.691 182.647 C 65.375 178.698,65.449 176.865,65.593 160.300 C 65.752 141.920,65.760 141.804,66.995 137.949 C 68.944 131.863,72.953 130.134,85.750 129.862 L 91.400 129.741 91.400 123.471 L 91.400 117.200 85.750 117.228 C 82.642 117.244,79.020 117.333,77.700 117.427 M308.000 123.448 L 308.000 129.746 313.650 129.856 C 328.553 130.148,331.886 132.201,333.527 142.100 C 333.809 143.798,333.880 146.666,333.996 161.100 C 334.146 179.659,334.199 180.561,335.393 185.301 C 337.353 193.077,341.784 197.481,349.878 199.697 L 351.456 200.129 349.436 200.769 C 341.099 203.412,336.835 208.058,335.089 216.400 C 334.185 220.723,334.153 221.391,334.003 239.300 C 333.849 257.646,333.817 258.232,332.786 261.997 C 330.945 268.714,327.080 270.481,313.650 270.744 L 308.000 270.854 308.000 277.152 L 308.000 283.450 315.050 283.343 C 337.941 282.996,345.840 278.757,348.874 265.192 C 349.994 260.184,350.037 259.401,350.201 241.400 C 350.300 230.495,350.434 224.145,350.587 223.100 C 352.442 210.403,357.184 206.810,372.550 206.458 L 377.600 206.343 377.600 200.100 L 377.600 193.857 372.550 193.741 C 359.100 193.433,353.923 190.541,351.525 182.000 C 350.393 177.967,350.200 174.612,350.200 159.000 C 350.200 142.755,349.966 139.319,348.486 133.786 C 345.208 121.540,337.224 117.593,315.050 117.257 L 308.000 117.150 308.000 123.448 M133.200 242.800 L 133.200 254.000 142.500 254.000 L 151.800 254.000 151.800 242.800 L 151.800 231.600 142.500 231.600 L 133.200 231.600 133.200 242.800 M190.400 242.800 L 190.400 254.000 199.700 254.000 L 209.000 254.000 209.000 242.800 L 209.000 231.600 199.700 231.600 L 190.400 231.600 190.400 242.800 M247.600 242.800 L 247.600 254.000 256.900 254.000 L 266.200 254.000 266.200 242.800 L 266.200 231.600 256.900 231.600 L 247.600 231.600 247.600 242.800 " stroke="none" fill="#fbfbfb" fill-rule="evenodd"></path><path id="path1" d="M0.000 200.000 L 0.000 400.000 200.000 400.000 L 400.000 400.000 400.000 200.000 L 400.000 0.000 200.000 0.000 L 0.000 0.000 0.000 200.000 M91.400 123.471 L 91.400 129.741 85.750 129.862 C 72.953 130.134,68.944 131.863,66.995 137.949 C 65.760 141.804,65.752 141.920,65.593 160.300 C 65.449 176.865,65.375 178.698,64.691 182.647 C 63.063 192.047,58.610 197.121,49.742 199.682 L 48.167 200.136 50.174 200.772 C 58.302 203.349,62.602 208.036,64.382 216.261 C 65.372 220.835,65.444 222.260,65.594 240.200 C 65.718 255.025,65.778 257.333,66.085 259.000 C 67.801 268.328,71.355 270.450,85.750 270.742 L 91.400 270.857 91.400 277.154 L 91.400 283.451 84.450 283.343 C 61.895 282.995,53.863 278.812,50.702 265.769 C 49.410 260.439,49.200 256.964,49.198 240.821 C 49.196 224.538,48.968 221.317,47.515 217.045 C 44.915 209.401,39.747 206.753,26.850 206.458 L 21.800 206.343 21.800 200.071 L 21.800 193.800 25.271 193.800 C 39.899 193.800,45.695 190.712,48.003 181.688 C 49.018 177.721,49.050 177.130,49.199 159.500 C 49.364 139.931,49.581 137.455,51.641 131.616 C 55.385 121.000,64.068 117.338,85.750 117.228 L 91.400 117.200 91.400 123.471 M324.900 117.681 C 341.426 119.554,347.094 124.276,349.391 138.084 C 350.083 142.242,350.200 145.269,350.200 159.000 C 350.200 174.612,350.393 177.967,351.525 182.000 C 353.923 190.541,359.100 193.433,372.550 193.741 L 377.600 193.857 377.600 200.100 L 377.600 206.343 372.550 206.458 C 357.184 206.810,352.442 210.403,350.587 223.100 C 350.434 224.145,350.300 230.495,350.201 241.400 C 350.037 259.401,349.994 260.184,348.874 265.192 C 345.840 278.757,337.941 282.996,315.050 283.343 L 308.000 283.450 308.000 277.152 L 308.000 270.854 313.650 270.744 C 327.080 270.481,330.945 268.714,332.786 261.997 C 333.817 258.232,333.849 257.646,334.003 239.300 C 334.153 221.391,334.185 220.723,335.089 216.400 C 336.835 208.058,341.099 203.412,349.436 200.769 L 351.456 200.129 349.878 199.697 C 341.784 197.481,337.353 193.077,335.393 185.301 C 334.199 180.561,334.146 179.659,333.996 161.100 C 333.880 146.666,333.809 143.798,333.527 142.100 C 331.886 132.201,328.553 130.148,313.650 129.856 L 308.000 129.746 308.000 123.448 L 308.000 117.150 315.050 117.257 C 319.467 117.324,323.146 117.482,324.900 117.681 M151.800 242.800 L 151.800 254.000 142.500 254.000 L 133.200 254.000 133.200 242.800 L 133.200 231.600 142.500 231.600 L 151.800 231.600 151.800 242.800 M209.000 242.800 L 209.000 254.000 199.700 254.000 L 190.400 254.000 190.400 242.800 L 190.400 231.600 199.700 231.600 L 209.000 231.600 209.000 242.800 M266.200 242.800 L 266.200 254.000 256.900 254.000 L 247.600 254.000 247.600 242.800 L 247.600 231.600 256.900 231.600 L 266.200 231.600 266.200 242.800 " stroke="none" fill="#f43c44" fill-rule="evenodd"></path></g></svg>